<svg xmlns="http://www.w3.org/2000/svg" xmlns:xlink="http://www.w3.org/1999/xlink" version="1.1" x="0px" y="0px" viewBox="0 0 78 97.5" enable-background="new 0 0 78 78" xml:space="preserve"><title>Hand Right Metal</title><desc>Created with Sketch.</desc><g><polygon points="24,51 27,51 27,12 24,12 24,36 21,36 21,39 24,39  "/><polygon points="36,39 36,30 42,30 42,27 36,27 36,12 33,12 33,39  "/><rect x="15" y="42" width="3" height="12"/><polygon points="51,39 54,39 54,15 51,15 51,27 45,27 45,30 51,30  "/><rect x="27" y="9" width="6" height="3"/><rect x="54" y="12" width="6" height="3"/><rect x="42" y="30" width="3" height="6"/><path d="M54,69H30v-6h-3c0,3,0,6,0,9c10,0,20,0,30,0v-9h-3V69z"/><rect x="57" y="54" width="3" height="9"/><rect x="60" y="15" width="3" height="39"/><rect x="18" y="39" width="3" height="3"/><rect x="18" y="54" width="3" height="3"/><polygon points="24,57 21,57 21,60 24,60 24,63 27,63 27,57  "/></g><text x="0" y="93" fill="#000000" font-size="5px" font-weight="bold" font-family="'Helvetica Neue', Helvetica, Arial-Unicode, Arial, Sans-serif">Created by Mikkel Mikkelsen</text><text x="0" y="98" fill="#000000" font-size="5px" font-weight="bold" font-family="'Helvetica Neue', Helvetica, Arial-Unicode, Arial, Sans-serif">from the Noun Project</text></svg>